PathFileType	4	(X/Y/Z)	Patient4_TMGait_0pt3_02_left_27.trc.trc
DataRate	CameraRate	NumFrames	NumMarkers	Units	OrigDataRate	OrigDataStartFrame	OrigNumFrames
54.687500000000	54.687500000000	4	33	mm	54.687500000000	1	       141
Frame#	Time	Sacral			L.Shoulder			Chest			R.Shoulder			Neck			R.ASIS			L.ASIS			R.Thigh.Superior			R.Thigh.Lateral			R.Thigh.Inferior			R.Patella			L.Thigh.Superior			L.Thigh.Lateral			L.Thigh.Inferior			L.Patella			L.Shank.Superior			L.Shank.Lateral			L.Shank.Inferior			R.Shank.Superior			R.Shank.Lateral			R.Shank.Inferior			R.Heel			R.Midfoot.Superior			R.Midfoot.Lateral			R.Toe			L.Heel			L.Midfoot.Lateral			L.Midfoot.Superior			L.Toe			L.Elbow			L.Wrist			R.Elbow			R.Wrist			
		X1	Y1	Z1	X2	Y2	Z2	X3	Y3	Z3	X4	Y4	Z4	X5	Y5	Z5	X6	Y6	Z6	X7	Y7	Z7	X8	Y8	Z8	X9	Y9	Z9	X10	Y10	Z10	X11	Y11	Z11	X12	Y12	Z12	X13	Y13	Z13	X14	Y14	Z14	X15	Y15	Z15	X16	Y16	Z16	X17	Y17	Z17	X18	Y18	Z18	X19	Y19	Z19	X20	Y20	Z20	X21	Y21	Z21	X22	Y22	Z22	X23	Y23	Z23	X24	Y24	Z24	X25	Y25	Z25	X26	Y26	Z26	X27	Y27	Z27	X28	Y28	Z28	X29	Y29	Z29	X30	Y30	Z30	X31	Y31	Z31	X32	Y32	Z32	X33	Y33	Z33	

1	52.930000000000	758.642939843558	991.858147462720	534.262263373410	942.959712815797	1421.814108664743	353.897855392502	1038.824786719855	1353.500715134842	518.658758896784	951.131340996102	1425.414478281110	690.120281287781	920.992739039248	1484.625437759810	510.869731624726	993.392702656006	930.364798757392	649.978497152262	974.044000147386	952.660063520585	376.760288128668	1045.736752991548	735.171778976910	604.695997216282	971.022710687518	616.071009010263	655.084427779392	1048.840866284111	573.006960461440	569.139366945603	1053.914891333183	478.627880164591	569.887957321995	1053.381960614801	760.895214107605	406.866971594681	1004.720305212211	635.754852145648	327.869463293032	1102.342549232527	568.752000255961	395.012747654934	1109.197949968551	477.909295265716	384.067931656538	1037.549940446874	416.810458616003	370.246410729080	892.372688148115	386.266016461173	321.802936005006	873.923983602053	253.287228751998	365.841058512942	1011.592595106075	391.040495235123	571.835412232094	929.609712768090	292.977087447645	630.716584191522	955.513500454273	198.574347079640	560.463533737508	802.828715154579	43.160060723744	526.913254703518	975.428083138165	96.496325414976	563.875003569759	885.822162452249	37.290466216966	601.589029635486	1094.202518026802	42.589811055540	592.137182896319	679.816532120264	195.825988460287	404.002444249045	733.495869746294	154.958373271021	318.203481454040	839.877354939997	155.108724231224	337.158028391952	910.730731561439	42.464997786387	296.339467551309	1000.865737430563	1073.959114533230	230.332635224977	1204.115530103130	905.372694498835	231.005840376968	907.850919792530	1075.415101668778	810.267097226625	1003.234377762391	830.505985612849	824.293615253672	
2	52.948285714286	757.273698265017	990.035174728556	538.032506033652	938.524684423043	1419.491601711738	354.411167412401	1037.099477567358	1351.695360852393	517.727428698213	952.519165556130	1424.122601762491	690.517216431900	919.558094574139	1483.060956383780	511.530863688902	993.164966765862	928.841160820488	650.609090555232	970.691659079490	951.610992023978	377.524755904461	1045.161369537664	733.859985912780	604.813573211028	971.191566043606	614.553194894805	655.392499959892	1048.743500172250	571.900937238788	569.065041761713	1053.605965009846	476.848259492612	569.590756234269	1052.886576147768	763.106370149986	407.393304430577	1006.856345386042	637.414195111495	327.962007132146	1106.071738737544	572.514523851114	394.604757530491	1115.450395438907	482.409668423338	383.175498872561	1046.521815278086	419.341012857999	369.345496383742	902.874264643441	382.142373388406	322.314032461056	891.809621027315	248.482951142152	365.366196661478	1010.055838169936	389.448355026326	571.570045942414	927.132962537032	292.291855075819	630.782624327865	951.555994803983	197.697205483333	560.146538942971	797.254963185307	43.277622857504	526.884954063985	969.648744509760	96.167588654693	563.475735142965	880.196681546514	37.318453962539	601.533427655486	1088.592641721462	42.300230011447	592.174908823861	702.429818123236	180.243983181007	405.375579603712	756.609448069362	143.930385587589	318.314110400977	862.491985304535	150.054105463822	335.997500449828	938.655472600444	42.905383877893	292.358445308065	983.708919613247	1068.847523587886	234.231836550361	1167.410422354795	884.553267566635	233.866605345219	920.816691704433	1073.783246101782	812.567650283864	1031.419695685657	837.124181231509	823.358703771202	
3	52.966571428571	755.894119274412	988.283615667056	541.786060752940	934.017232760613	1417.206360613848	354.890334064349	1035.349739702598	1349.941459837534	516.721412208667	953.931630231653	1422.899605122346	690.843456156624	918.100726975989	1481.543919567351	512.137114740629	992.926999140438	927.339861735892	651.205205606752	967.291162083381	950.589390297316	378.281306822823	1044.496337566030	732.541654126981	604.877963447214	971.249006581730	613.052232209154	655.694739639500	1048.462476088174	570.772617695648	568.932275793531	1053.102386888810	475.081596985213	569.252304571304	1052.236970656993	765.281519369384	407.847729042685	1008.772126697800	639.060553010751	328.002185257764	1109.548292520528	576.265656002422	394.154834548413	1121.487382211984	487.000370078224	382.245991219892	1055.458454576642	421.949343913847	368.378026919825	913.651906310933	377.774875651493	322.623432588249	910.285782023331	243.589990782471	364.714110900978	1008.354250836635	387.877158162271	571.281096788193	924.515917110683	291.599843554952	630.817006630282	947.460030144679	196.825206733316	559.833734679246	791.563145978711	43.397343121402	526.860482542662	963.774162027156	95.867682482178	563.114714780606	874.459452616100	37.343549214837	601.481989703785	1082.868176029450	42.013180181954	592.210520532821	726.034358850618	164.328122196581	406.429221682095	780.751018574116	132.595322427049	318.174690239610	885.982736061390	144.856285869293	334.676559780860	967.557501004316	43.401210738004	288.382720682032	966.008491845492	1063.921116126762	238.133638997304	1129.611597751919	864.326749632771	236.911490330358	934.187168670218	1072.356385821944	814.779858716651	1060.336797383248	844.646593273009	822.069435462897	
4	52.984857142857	754.543911596563	986.713643128154	545.406298490085	929.520877866015	1415.068183396654	355.303982084682	1033.614685229710	1348.333927963366	515.617834369371	955.358289294202	1421.834484613287	691.041336124078	916.652041024937	1480.161778063586	512.638625094708	992.680159087483	925.934805380790	651.720858564398	963.901453486390	949.650784575659	378.998443939954	1043.694963454275	731.257915421377	604.863071533766	971.102835796204	611.633432141849	655.979943862305	1047.878042232488	569.651328151247	568.723340848132	1052.275292624413	473.395498030102	568.868031470412	1051.364523943821	767.347574213433	408.180651011989	1010.286078094278	640.647194182897	327.958338974108	1112.514978904113	579.881329673149	393.645674206156	1126.986912638079	491.594738428563	381.291425383459	1064.054731669170	424.617161977642	367.351082490853	924.552841134738	373.194062714820	322.609488308464	929.126568690674	238.758339483725	363.828412023965	1006.408133884587	386.388567875715	570.967302732837	921.730163284367	290.925338793809	630.809398569890	943.248497053794	195.992484838087	559.535905405126	785.840784245011	43.517560059298	526.843654691722	957.909111901614	95.624143230283	562.827657259293	868.701110480942	37.365253917256	601.439321343008	1077.117786225159	41.738100309201	592.242006728635	750.463503356475	148.451024732550	406.963346088584	805.795157079028	121.188671797825	317.681615839300	910.154385981550	139.650587100592	333.183271693175	997.136773326428	44.014586454661	284.618631748826	947.959167033058	1059.481067564082	241.930039660024	1091.239071745781	845.660744885899	240.162052952091	947.824804751397	1071.327107888647	816.773298563179	1089.521885493343	853.439211661600	820.240282245164	
